<svg width="152" height="40" viewBox="0 0 152 40" fill="none" xmlns="http://www.w3.org/2000/svg">
<path d="M55.0352 38.3516C52.8438 38.3516 51.0566 37.4961 49.6738 35.7852C48.3027 34.0625 47.6172 31.5371 47.6172 28.209C47.6172 24.8457 48.3145 22.3027 49.709 20.5801C51.1035 18.8457 52.9258 17.9785 55.1758 17.9785C56.1133 17.9785 56.9395 18.1074 57.6543 18.3652C58.3691 18.623 58.9844 18.9688 59.5 19.4023C60.0273 19.8359 60.4727 20.3223 60.8359 20.8613H61.0117C60.9414 20.4863 60.8535 19.9355 60.748 19.209C60.6543 18.4707 60.6074 17.7148 60.6074 16.9414V10.6484H65.9863V38H61.873L60.8359 35.4512H60.6074C60.2676 35.9902 59.8398 36.4824 59.3242 36.9277C58.8203 37.3613 58.2168 37.707 57.5137 37.9648C56.8105 38.2227 55.9844 38.3516 55.0352 38.3516ZM56.916 34.0801C58.3809 34.0801 59.4121 33.6465 60.0098 32.7793C60.6191 31.9004 60.9414 30.582 60.9766 28.8242V28.2441C60.9766 26.334 60.6836 24.875 60.0977 23.8672C59.5117 22.8477 58.4219 22.3379 56.8281 22.3379C55.6445 22.3379 54.7188 22.8477 54.0508 23.8672C53.3828 24.8867 53.0488 26.3574 53.0488 28.2793C53.0488 30.2012 53.3828 31.6484 54.0508 32.6211C54.7305 33.5938 55.6855 34.0801 56.916 34.0801Z" fill="#1A73E8"/>
<path d="M75.6951 18.3477V38H70.3337V18.3477H75.6951ZM73.0232 10.6484C73.8201 10.6484 74.5056 10.8359 75.0798 11.2109C75.6541 11.5742 75.9412 12.2598 75.9412 13.2676C75.9412 14.2637 75.6541 14.9551 75.0798 15.3418C74.5056 15.7168 73.8201 15.9043 73.0232 15.9043C72.2146 15.9043 71.5232 15.7168 70.949 15.3418C70.3865 14.9551 70.1052 14.2637 70.1052 13.2676C70.1052 12.2598 70.3865 11.5742 70.949 11.2109C71.5232 10.8359 72.2146 10.6484 73.0232 10.6484Z" fill="#1A73E8"/>
<path d="M93.7886 32.1641C93.7886 33.5 93.4722 34.6309 92.8394 35.5566C92.2183 36.4707 91.2866 37.168 90.0445 37.6484C88.8023 38.1172 87.2554 38.3516 85.4038 38.3516C84.0327 38.3516 82.855 38.2637 81.8706 38.0879C80.898 37.9121 79.9136 37.6191 78.9175 37.209V32.7793C79.9839 33.2598 81.1265 33.6582 82.3452 33.9746C83.5757 34.2793 84.6538 34.4316 85.5796 34.4316C86.6226 34.4316 87.3667 34.2793 87.812 33.9746C88.2691 33.6582 88.4976 33.248 88.4976 32.7441C88.4976 32.416 88.4038 32.123 88.2163 31.8652C88.0405 31.5957 87.6538 31.2969 87.0562 30.9688C86.4585 30.6289 85.521 30.1895 84.2437 29.6504C83.0132 29.1348 81.9995 28.6133 81.2027 28.0859C80.4175 27.5586 79.8316 26.9375 79.4448 26.2227C79.0698 25.4961 78.8823 24.5762 78.8823 23.4629C78.8823 21.6465 79.5855 20.2812 80.9917 19.3672C82.4097 18.4414 84.3023 17.9785 86.6695 17.9785C87.8882 17.9785 89.0484 18.1016 90.1499 18.3477C91.2632 18.5938 92.4058 18.9863 93.5777 19.5254L91.9605 23.3926C90.9878 22.9707 90.0679 22.625 89.2007 22.3555C88.3452 22.0859 87.4722 21.9512 86.5816 21.9512C85.7964 21.9512 85.2046 22.0566 84.8062 22.2676C84.4077 22.4785 84.2085 22.8008 84.2085 23.2344C84.2085 23.5508 84.3081 23.832 84.5073 24.0781C84.7183 24.3242 85.1167 24.5996 85.7027 24.9043C86.3003 25.1973 87.1734 25.5781 88.3218 26.0469C89.4351 26.5039 90.4019 26.9844 91.2222 27.4883C92.0425 27.9805 92.6753 28.5957 93.1206 29.334C93.5659 30.0605 93.7886 31.0039 93.7886 32.1641Z" fill="#1A73E8"/>
<path d="M102.074 10.6484V22.8828C102.074 23.6211 102.044 24.3594 101.986 25.0977C101.927 25.8359 101.863 26.5742 101.792 27.3125H101.863C102.226 26.7969 102.595 26.2871 102.97 25.7832C103.357 25.2793 103.767 24.793 104.2 24.3242L109.702 18.3477H115.749L107.945 26.873L116.224 38H110.036L104.376 30.0371L102.074 31.8828V38H96.7122V10.6484H102.074Z" fill="#1A73E8"/>
<path d="M125.827 17.9434C128.464 17.9434 130.485 18.5176 131.892 19.666C133.298 20.8145 134.001 22.5605 134.001 24.9043V38H130.257L129.22 35.3281H129.079C128.517 36.0312 127.942 36.6055 127.356 37.0508C126.771 37.4961 126.097 37.8242 125.335 38.0352C124.573 38.2461 123.647 38.3516 122.558 38.3516C121.397 38.3516 120.355 38.1289 119.429 37.6836C118.515 37.2383 117.794 36.5586 117.267 35.6445C116.739 34.7188 116.476 33.5469 116.476 32.1289C116.476 30.043 117.208 28.5078 118.673 27.5234C120.138 26.5273 122.335 25.9766 125.265 25.8711L128.675 25.7656V24.9043C128.675 23.873 128.405 23.1172 127.866 22.6367C127.327 22.1562 126.577 21.916 125.616 21.916C124.667 21.916 123.735 22.0508 122.821 22.3203C121.907 22.5898 120.993 22.9297 120.079 23.3398L118.304 19.7188C119.347 19.168 120.513 18.7344 121.802 18.418C123.103 18.1016 124.444 17.9434 125.827 17.9434ZM128.675 28.8945L126.601 28.9648C124.866 29.0117 123.659 29.3223 122.98 29.8965C122.312 30.4707 121.978 31.2266 121.978 32.1641C121.978 32.9844 122.218 33.5703 122.698 33.9219C123.179 34.2617 123.806 34.4316 124.579 34.4316C125.728 34.4316 126.694 34.0918 127.48 33.4121C128.276 32.7324 128.675 31.7656 128.675 30.5117V28.8945Z" fill="#1A73E8"/>
<path d="M151.989 32.1641C151.989 33.5 151.673 34.6309 151.04 35.5566C150.419 36.4707 149.487 37.168 148.245 37.6484C147.003 38.1172 145.456 38.3516 143.604 38.3516C142.233 38.3516 141.055 38.2637 140.071 38.0879C139.098 37.9121 138.114 37.6191 137.118 37.209V32.7793C138.184 33.2598 139.327 33.6582 140.546 33.9746C141.776 34.2793 142.854 34.4316 143.78 34.4316C144.823 34.4316 145.567 34.2793 146.012 33.9746C146.47 33.6582 146.698 33.248 146.698 32.7441C146.698 32.416 146.604 32.123 146.417 31.8652C146.241 31.5957 145.854 31.2969 145.257 30.9688C144.659 30.6289 143.721 30.1895 142.444 29.6504C141.214 29.1348 140.2 28.6133 139.403 28.0859C138.618 27.5586 138.032 26.9375 137.645 26.2227C137.27 25.4961 137.083 24.5762 137.083 23.4629C137.083 21.6465 137.786 20.2812 139.192 19.3672C140.61 18.4414 142.503 17.9785 144.87 17.9785C146.089 17.9785 147.249 18.1016 148.35 18.3477C149.464 18.5938 150.606 18.9863 151.778 19.5254L150.161 23.3926C149.188 22.9707 148.268 22.625 147.401 22.3555C146.546 22.0859 145.673 21.9512 144.782 21.9512C143.997 21.9512 143.405 22.0566 143.007 22.2676C142.608 22.4785 142.409 22.8008 142.409 23.2344C142.409 23.5508 142.509 23.832 142.708 24.0781C142.919 24.3242 143.317 24.5996 143.903 24.9043C144.501 25.1973 145.374 25.5781 146.522 26.0469C147.636 26.5039 148.602 26.9844 149.423 27.4883C150.243 27.9805 150.876 28.5957 151.321 29.334C151.766 30.0605 151.989 31.0039 151.989 32.1641Z" fill="#1A73E8"/>
<rect width="40" height="40" rx="6" fill="#1A73E8"/>
<path fill-rule="evenodd" clip-rule="evenodd" d="M24.5157 0H33.5479V1.29032V18.0645V40H12.294C11.2575 39.4025 10.3211 38.5974 9.48497 37.5847C7.46244 35.0974 6.45117 31.4511 6.45117 26.6457C6.45117 21.7895 7.47973 18.1177 9.53683 15.6304C11.5939 13.1262 14.282 11.8741 17.601 11.8741C18.984 11.8741 20.2027 12.0602 21.2572 12.4325C22.3116 12.8047 23.2192 13.3039 23.9798 13.9299C24.1653 14.0792 24.3439 14.2328 24.5157 14.3908V0ZM20.1681 35.1228C22.3289 35.1228 23.8502 34.4968 24.7318 33.2446C25.6307 31.9756 26.1061 30.072 26.1579 27.534V26.6964C26.1579 23.9384 25.7258 21.8318 24.8614 20.3766C23.9971 18.9045 22.3894 18.1685 20.0385 18.1685C18.2925 18.1685 16.9269 18.9045 15.9415 20.3766C14.9562 21.8487 14.4635 23.9722 14.4635 26.7472C14.4635 29.5221 14.9562 31.6118 15.9415 33.0162C16.9441 34.4206 18.353 35.1228 20.1681 35.1228Z" fill="white"/>
</svg>
